<svg width="430" height="345" viewBox="0 0 430 345" fill="none" xmlns="http://www.w3.org/2000/svg">
<path d="M248.3 333.801L127.5 334.201C95.5 324.6 69.2 291.1 69 240.9C69 233.3 69.5 225.801 70.7 218.301L168 196.4L243.1 179.5C248.6 184.5 253.8 189.8 258.5 195.5L186.7 233.4L152.8 251.301L190.8 238.201L269.8 210.9C274.7 218.4 279.1 226.3 282.9 234.5L259.1 259.1L286.1 241.4C286.2 241.7 286.3 241.901 286.4 242.201C303.5 282.9 282.4 333.601 248.3 333.801Z" fill="#F2F2F2"/>
<path d="M228.4 168.2C210.1 173.5 187.7 180.1 164.6 187C131.2 197 96.5002 207.5 71.2002 215.2V215.1C72.1002 209.7 74.3002 204.6 77.6002 200.2C96.3002 175.8 120.1 158.8 146.7 152.5C154.2 150.7 161.8 149.8 169.5 149.8C190.6 149.7 210.6 156.3 228.4 168.2Z" fill="#F2F2F2"/>
<path d="M150.1 344.1C195.5 344.1 232.3 338.8 232.3 332.2C232.3 325.6 195.5 320.3 150.1 320.3C104.7 320.3 67.9004 325.6 67.9004 332.2C67.9004 338.8 104.7 344.1 150.1 344.1Z" fill="#3F3D56"/>
<path d="M120.9 221.5V240L134.1 241.6L142 231.6L135.7 218.9L120.9 221.5Z" fill="#FBBEBE"/>
<path d="M171 297.4L177.8 315.9L190.4 311.7L180.9 296.4L171 297.4Z" fill="#FBBEBE"/>
<path d="M155.1 140.301C155.1 140.301 86.5997 133.401 88.6997 152.401C90.7997 171.401 120.8 225.701 120.8 225.701L140.8 222.001C140.8 222.001 126.6 199.901 127.6 192.5C128.7 185.1 124.4 175.101 124.4 175.101L134.4 176.701L140.2 185.701L152.3 247.9L170.7 303.801L184.4 300.101C184.4 300.101 177 276.9 179.1 269.501C181.2 262.101 169.1 233.601 169.1 233.601L177.5 184C177.5 184 193.8 179.301 189.1 162.901C184.7 146.601 155.1 140.301 155.1 140.301Z" fill="#2F2E41"/>
<path d="M126.7 234.1C126.7 234.1 118.8 227.8 119.3 230.4C119.6 232.3 119.6 234.3 119.3 236.2L111.9 252.5C111.9 252.5 93.9999 268.8 110.3 269.4C126.7 270 135.1 253.1 135.1 253.1C135.1 253.1 157.8 236.2 155.1 233.6C152.5 231 138.6 224.9 138.6 224.9C138.6 224.9 134.1 237.8 126.7 234.1Z" fill="#2F2E41"/>
<path d="M177.3 307.4C177.3 307.4 169.9 300.5 169.4 303.7C168.9 306.9 168.3 311.1 168.3 311.1L157.2 321.6C157.2 321.6 141.4 336.9 155.1 337.4C159.1 337.6 163 336.9 166.7 335.3C170.3 333.7 173.6 331.4 176.2 328.4C176.2 328.4 196.2 324.2 195.2 321C194.1 317.8 188.9 305.6 186.5 305.1C184.1 304.8 183.6 311.7 177.3 307.4Z" fill="#2F2E41"/>
<path d="M152 64.3002C161 64.3002 168.3 57.0002 168.3 48.0002C168.3 39.0002 161 31.7002 152 31.7002C143 31.7002 135.7 39.0002 135.7 48.0002C135.6 57.0002 143 64.3002 152 64.3002Z" fill="#FBBEBE"/>
<path d="M144.6 59.0003C144.6 59.0003 151.5 77.5003 150.9 79.0003C150.4 80.6003 172.5 65.8003 172.5 65.8003C172.5 65.8003 163 63.7003 163 55.3003L144.6 59.0003Z" fill="#FBBEBE"/>
<path d="M155.1 74.9003H149.3L141.4 87.6002C141.4 87.6002 133.5 94.5003 139.3 108.7C145.1 122.9 149.8 140.9 149.8 140.9C149.8 140.9 166.7 143 169.8 148.3C173 153.6 190.9 170.5 190.9 170.5C190.9 170.5 194.1 159.4 193 143.1C191.9 126.8 193 102 193 102L191.9 69.3002C191.9 69.3002 171.5 64.6003 170.1 65.4003C168.8 65.9003 155.1 74.9003 155.1 74.9003Z" fill="white"/>
<path d="M184.1 70.6005L192 69.0005C192 69.0005 200.4 74.3005 208.3 89.6005C208.3 89.6005 191.4 100.7 189.9 100.1C188.3 99.7005 184.1 70.6005 184.1 70.6005Z" fill="#F9F9F9"/>
<path d="M151.4 74.9003L159 142.6L149.8 140.8C149.8 140.8 144.1 119.8 141.7 115C139.3 110.3 139.4 90.6003 141.3 87.5003C143.2 84.4003 149.2 74.8003 149.2 74.8003H151.4V74.9003Z" fill="#EB5757"/>
<path d="M170.3 65.1006C174.8 65.1006 187 67.9006 192.1 69.0006C185.3 74.0006 189.1 97.7006 193.1 99.1006C192.8 112.901 192.7 133.401 193.4 148.701C194 161.301 191.1 170.301 191.1 170.301C191.1 170.301 184.2 163.401 182.3 161.801C180.4 160.201 171 149.801 170.1 148.401C169.2 147.001 170.2 148.501 170.3 148.501C170.4 148.501 168.1 146.301 168.1 146.301L162.1 70.3006" fill="#EB5757"/>
<path d="M135.6 106.5C135.6 106.5 123.5 126 127.2 133.4C130.9 140.8 135.6 140.3 135.6 140.3C135.6 140.3 142.5 138.8 142.5 131.4C142.5 124 151.2 125.201 151.2 125.201C151.2 125.201 173.4 120.501 165 117.201C155.7 113.501 141.3 117.6 141.3 117.6L140.8 105.5L135.6 106.5Z" fill="#FBBEBE"/>
<path d="M141.2 88.0005C141.2 88.0005 135.6 89.1005 134 97.6005C132.4 106 132.9 110.3 132.9 110.3L141 110.5L141.2 88.0005Z" fill="white"/>
<path opacity="0.1" d="M128.8 129.2C128.8 129.2 137.2 118.1 138.3 119.7L128.8 129.2Z" fill="black"/>
<path d="M160.3 28.2005C160.3 28.2005 151.6 19.5005 143.3 25.4005C135 31.2005 131.1 36.8005 132 40.5005C132.9 44.2005 135.5 49.5005 135.5 49.5005C135.5 49.5005 133.8 41.7005 140.8 40.9005C147.8 40.1005 157.4 35.2005 157.4 35.2005L164.3 49.1005C164.3 49.1005 165.1 45.8005 167.7 46.7005C170.4 47.5005 167.9 29.0005 160.3 28.2005Z" fill="#2F2E41"/>
<path d="M101 318.2C101 325.9 96.3996 328.6 90.7996 328.6C90.6996 328.6 90.4996 328.6 90.3996 328.6C90.0996 328.6 89.8996 328.6 89.5996 328.6C84.4996 328.2 80.5996 325.4 80.5996 318.3C80.5996 310.9 90.0996 301.6 90.7996 300.9C90.7996 300.9 101 310.5 101 318.2Z" fill="#F50057"/>
<path d="M90.4002 327.4L94.1002 322.2L90.4002 328V328.6C90.1002 328.6 89.9002 328.6 89.6002 328.6L90.0002 320.9V320.8V320.1L86.2002 314.3L90.0002 319.6V319.8L90.3002 314L87.1002 308L90.3002 313L90.6002 300.9L90.5002 310.4L93.7002 306.6L90.5002 311.2L90.4002 316.4L93.4002 311.4L90.4002 317.2V320.1L94.7002 313.1L90.4002 321.1V327.4Z" fill="#3F3D56"/>
<path d="M287.9 68.6002C290.6 68.6002 292.8 64.0002 292.8 58.4002C292.8 52.8002 290.6 48.2002 287.9 48.2002C285.2 48.2002 283 52.8002 283 58.4002C283 64.0002 285.2 68.6002 287.9 68.6002Z" fill="#F50057"/>
<path d="M293.9 72.4005C296.6 72.4005 298.8 67.8005 298.8 62.2005C298.8 56.6005 296.6 52.0005 293.9 52.0005C291.2 52.0005 289 56.6005 289 62.2005C289 67.8005 291.2 72.4005 293.9 72.4005Z" fill="#F50057"/>
<path d="M283.9 160.4C283.9 160.2 285 155.4 290.3 148.4C295.2 142 304.8 132.4 322.8 123.3C356.9 106.1 364.6 73.7004 364.6 73.4004L365.5 73.6004C365.5 73.7004 363.6 82.0004 357.4 92.3004C349.2 106 337.4 117 323.2 124.2C289.1 141.4 284.9 160.5 284.8 160.7L283.9 160.4Z" fill="#3F3D56"/>
<path d="M366.3 69.8006C369.7 69.8006 372.4 67.1006 372.4 63.7006C372.4 60.3006 369.7 57.6006 366.3 57.6006C362.9 57.6006 360.2 60.3006 360.2 63.7006C360.2 67.1006 363 69.8006 366.3 69.8006Z" fill="#F50057"/>
<path d="M365.1 99.3006C368.5 99.3006 371.2 96.6006 371.2 93.2006C371.2 89.8006 368.5 87.1006 365.1 87.1006C361.7 87.1006 359 89.8006 359 93.2006C359 96.6006 361.8 99.3006 365.1 99.3006Z" fill="#3F3D56"/>
<path d="M345.4 101.4C348.8 101.4 351.5 98.7002 351.5 95.3002C351.5 91.9002 348.8 89.2002 345.4 89.2002C342 89.2002 339.3 91.9002 339.3 95.3002C339.3 98.7002 342 101.4 345.4 101.4Z" fill="#F50057"/>
<path d="M348.4 121.5C351.8 121.5 354.5 118.8 354.5 115.4C354.5 112 351.8 109.3 348.4 109.3C345 109.3 342.3 112 342.3 115.4C342.4 118.8 345.1 121.5 348.4 121.5Z" fill="#F50057"/>
<path d="M320 121.9C323.4 121.9 326.1 119.2 326.1 115.8C326.1 112.4 323.4 109.7 320 109.7C316.6 109.7 313.9 112.4 313.9 115.8C313.9 119.2 316.7 121.9 320 121.9Z" fill="#3F3D56"/>
<path d="M286.4 163.1C286.4 163.1 292.1 148 313.1 152.2L286.4 163.1Z" fill="#3F3D56"/>
<path d="M281.1 157.8C281.1 157.8 289.9 144.3 274.1 129.8L281.1 157.8Z" fill="#3F3D56"/>
<path d="M424.9 165.001L414.8 161.001L404.7 157.001L413.2 150.301L421.7 143.601L423.3 154.301L424.9 165.001Z" fill="#F2F2F2"/>
<path d="M20.2 96.4005L10.1 92.4005L0 88.4005L8.5 81.7005L17 75.0005L18.6 85.7005L20.2 96.4005Z" fill="#F2F2F2"/>
<path d="M374.9 223.501L364.8 219.501L354.7 215.501L363.2 208.801L371.7 202.101L373.3 212.801L374.9 223.501Z" fill="#F2F2F2"/>
<path d="M429.1 260.801L419.6 266.001L410.1 271.201L410.4 260.401L410.7 249.601L419.9 255.201L429.1 260.801Z" fill="#F2F2F2"/>
<path d="M71.2998 54.1004L61.7998 59.3004L52.2998 64.5004L52.5998 53.7004L52.8998 42.9004L62.0998 48.5004L71.2998 54.1004Z" fill="#F2F2F2"/>
<path d="M130.6 8.10059L132 40.5006L164.2 30.5006L152.1 2.60059L130.6 8.10059Z" fill="#EB5757" stroke="#EB5757"/>
<path d="M157.7 123.6L205.9 155.6L207.1 148L165.2 120.8L157.7 123.6Z" fill="#242626"/>
<path d="M214.6 85.0005L214.3 123.6L185.4 128.9C185.4 128.9 169.6 127.6 167 129C164.3 130.4 158.6 125 174.6 118.6C191.6 117.6 196.2 115 196.2 115L202.8 112L200.3 92.8005L214.6 85.0005Z" fill="#FBBEBE"/>
<path d="M351.8 176.201C351.8 176.201 341.7 186.201 326.7 200.301C321.8 204.901 316.5 209.901 310.7 215.101C302.7 222.401 294.1 230.201 285.3 237.801C279.9 242.501 274.4 247.201 269 251.701C239.9 276.001 212.1 295.601 202.8 291.301C182 281.501 209.3 122.801 212.4 105.201C212.6 104.201 212.7 103.601 212.7 103.601L351.8 176.201Z" fill="#3F3D56"/>
<path opacity="0.1" d="M326.4 200.301C321.5 204.901 316.1 210.001 310.4 215.201L281.5 139.5L308.6 153.6L326.4 200.301Z" fill="black"/>
<path opacity="0.1" d="M284.9 238.1C279.5 242.9 274 247.6 268.6 252.1L212.5 105.4C212.7 104.4 212.8 103.8 212.8 103.8L238.8 117.3L284.9 238.1Z" fill="black"/>
<path d="M388.4 72.9003C385.1 111 351.5 139.1 313.4 135.8C275.3 132.5 247.2 98.9003 250.5 60.8003C253.8 22.7003 293.6 -3.09966 331.6 0.30034C358.7 5.70034 391.8 34.9003 388.4 72.9003Z" fill="white"/>
<path d="M311.9 87.9003C308 132.7 277.1 150.3 241.2 147.2C205.3 144 178.8 112.4 181.9 76.5003C189.4 48.8003 208 13.3003 252.6 17.2003C288.6 20.4003 315.1 52.0003 311.9 87.9003Z" fill="white"/>
<path d="M405.6 139C402.5 174.2 371.5 200.1 336.4 197.1C301.2 194 275.3 163 278.3 127.9C281.4 92.7003 306.1 66.2003 347.5 69.8003C389 73.4003 409.3 97.8003 405.6 139Z" fill="white"/>
<path d="M308.5 78.7004C306 47.0004 282.5 27.6004 271 21.9004C303.8 35.4004 312.1 64.1004 312.2 76.8004C311.9 77.1004 310.7 77.9004 308.5 78.7004Z" fill="#F2F2F2"/>
<path d="M308.9 82.5004C336.1 66.0004 365.6 73.8004 376.9 79.7004C346.8 61.0004 318.6 71.0004 308.3 78.4004C308.3 78.8004 308.3 80.2004 308.9 82.5004Z" fill="#F2F2F2"/>
<path d="M312.2 81.4004C284.6 97.2004 277.1 126.7 276.8 139.5C275 104.1 297.5 84.3004 309 78.9004C309.3 79.0004 310.5 79.8004 312.2 81.4004Z" fill="#F2F2F2"/>
<path d="M206.2 145.101C230.9 172.101 281.1 196.901 281.1 196.901C281.1 196.901 281.1 200.501 279.2 205.901C242.8 194.501 204.5 156.101 204.5 156.101" fill="#2A2A2D"/>
<path d="M322.8 203.7C307.3 207 298.3 203.7 298.3 203.7C298.3 203.7 295.5 206.1 292.7 211C311.5 214.2 316.3 210.5 316.3 210.5" fill="#2A2A2D"/>
</svg>
